<?xml version="1.0" standalone="no"?><!DOCTYPE svg PUBLIC "-//W3C//DTD SVG 1.1//EN" "http://www.w3.org/Graphics/SVG/1.1/DTD/svg11.dtd"><svg t="1687367852579" class="icon" viewBox="0 0 1024 1024" version="1.1" xmlns="http://www.w3.org/2000/svg" p-id="2121" xmlns:xlink="http://www.w3.org/1999/xlink" width="200" height="200"><path d="M871.3 294.6c-170.9-69.4-362.5-69.4-533.3 0-66.3 26.9-93.3 93.2-65.5 133.7 17.7 26 47.5 39.2 78.9 40.6v323.9c0 43.7 35.5 79.2 79.2 79.2h348.2c43.7 0 79.2-35.5 79.2-79.2V468.9c31.4-1.4 61.2-14.7 78.9-40.6 27.8-40.5 0.7-106.9-65.6-133.7z" fill="#E8C89E" p-id="2122"></path><path d="M752.3 836.9H404.2c-55 0-99.7-44.7-99.7-99.7V431.5c-31.7-5.9-58.5-22.6-75.4-47.3-14.8-21.6-18.4-48.9-10-76.8 11.4-37.8 43-70.5 84.8-87.4 87.5-35.5 179.8-53.5 274.4-53.5 94.6 0 186.9 18 274.4 53.5 41.7 16.9 73.4 49.6 84.7 87.4 8.4 27.9 4.8 55.2-10 76.9-16.8 24.7-43.6 41.3-75.3 47.2v305.7c-0.1 55-44.8 99.7-99.8 99.7zM578.2 207.2c-87.7 0-175.5 16.9-259 50.8-30.3 12.3-53.1 35.2-60.9 61.2-4.8 15.8-3.1 30.7 4.6 41.9 12.9 19 35.9 30.5 63 31.8l19.6 0.9v343.5c0 32.4 26.3 58.7 58.7 58.7h348.2c32.4 0 58.7-26.3 58.7-58.7V393.7l19.6-0.9c27.1-1.2 50-12.8 62.9-31.7 7.7-11.3 9.4-26.2 4.6-42-7.8-26-30.6-48.9-60.9-61.2-83.6-33.8-171.3-50.7-259.1-50.7z" fill="" p-id="2123"></path><path d="M703.9 239c-170.9-69.4-362.5-69.4-533.3 0-66.3 26.9-93.3 93.2-65.5 133.7 17.7 26 47.5 39.2 78.9 40.6v323.9c0 43.7 35.5 79.2 79.2 79.2h348.2c43.7 0 79.2-35.5 79.2-79.2V413.3c31.4-1.4 61.2-14.7 78.9-40.6 27.8-40.5 0.7-106.8-65.6-133.7z" fill="#FFFFFF" p-id="2124"></path><path d="M611.4 836.9H263.2c-55 0-99.7-44.7-99.7-99.7V431.5c-31.7-5.9-58.5-22.6-75.4-47.3-14.8-21.6-18.4-48.9-10-76.8 11.4-37.8 43-70.5 84.8-87.4 87.5-35.5 179.8-53.5 274.4-53.5s186.9 18 274.4 53.5c41.7 16.9 73.4 49.6 84.7 87.4 8.4 27.9 4.8 55.2-10 76.9-16.8 24.7-43.6 41.3-75.3 47.2v305.7c-0.1 55-44.8 99.7-99.7 99.7zM437.3 207.2c-87.7 0-175.5 16.9-259 50.8-30.3 12.3-53.1 35.2-60.9 61.2-4.8 15.8-3.1 30.7 4.6 41.9 12.9 19 35.9 30.5 63 31.8l19.6 0.9v343.5c0 32.4 26.3 58.7 58.7 58.7h348.2c32.4 0 58.7-26.3 58.7-58.7V393.7l19.6-0.9c27.1-1.2 50-12.8 62.9-31.7 7.7-11.3 9.4-26.2 4.6-42-7.8-26-30.6-48.9-60.9-61.2-83.6-33.8-171.4-50.7-259.1-50.7z" fill="" p-id="2125"></path><path d="M348.8 402.6h-57.3c-11.3 0-20.5-9.2-20.5-20.5s9.2-20.5 20.5-20.5h57.3c11.3 0 20.5 9.2 20.5 20.5s-9.2 20.5-20.5 20.5zM591.1 402.6h-57.3c-11.3 0-20.5-9.2-20.5-20.5s9.2-20.5 20.5-20.5h57.3c11.3 0 20.5 9.2 20.5 20.5s-9.2 20.5-20.5 20.5zM472.1 501h-69.8c-11.3 0-20.5-9.2-20.5-20.5S391 460 402.3 460h69.8c11.3 0 20.5 9.2 20.5 20.5s-9.1 20.5-20.5 20.5zM357.1 593.5h-57.3c-11.3 0-20.5-9.2-20.5-20.5s9.2-20.5 20.5-20.5h57.3c11.3 0 20.5 9.2 20.5 20.5s-9.2 20.5-20.5 20.5zM348.8 718.8h-57.3c-11.3 0-20.5-9.2-20.5-20.5s9.2-20.5 20.5-20.5h57.3c11.3 0 20.5 9.2 20.5 20.5s-9.2 20.5-20.5 20.5zM554.8 718.8h-57.3c-11.3 0-20.5-9.2-20.5-20.5s9.2-20.5 20.5-20.5h57.3c11.3 0 20.5 9.2 20.5 20.5s-9.2 20.5-20.5 20.5zM591.1 593.5h-57.3c-11.3 0-20.5-9.2-20.5-20.5s9.2-20.5 20.5-20.5h57.3c11.3 0 20.5 9.2 20.5 20.5s-9.2 20.5-20.5 20.5z" fill="" p-id="2126"></path></svg>